<?xml version='1.0' encoding='utf-8'?>
<svg xmlns="http://www.w3.org/2000/svg" viewBox="0 0 640 480" width="24" height="24">
  <g fill="#000000">
    <path d="m128.44 80.186c-15.908-0.57157-30.027 8.8332-41.162 19.308-11.614 8.4379-25.461 16.968-29.358 31.774-3.5544 14.177 3.4239 28.69 12.939 38.93 10.84 13.166 24.627 25.911 42.157 28.456 16.142 1.271 31.506-5.8182 44.95-14.029 13.584-10.091 18.837-28.16 17.03-44.475-0.88648-17.234-5.6655-35.104-17.27-48.291-7.8086-7.4623-18.629-11.164-29.286-11.672z"/>
    <path d="m177.5 196c-11.171 0.8083-20.342 8.0692-28.597 14.981-6.7571 4.9585-13.178 12.07-13.442 20.891-0.020782 10.023 6.5554 18.571 13.758 24.899 8.3088 7.726 20.5 12.396 31.721 8.9663 11.375-2.8177 22.234-11.252 24.805-23.122 1.9674-11.138-0.91734-22.596-5.5591-32.707-4.6311-7.9438-13.21-14.175-22.687-13.908z"/>
    <path d="m49.819 112.15c3.3242 7.1578 1.0128 15.285-5.1617 18.15-6.1746 2.865-13.873-0.61783-17.192-7.7779-3.3242-7.1578-1.0128-15.285 5.1617-18.15 6.1746-2.865 13.873 0.61783 17.192 7.7779z"/>
    <path d="m71.72 76.433c3.0676 9.8497-1.663 19.76-10.565 22.133-8.9016 2.3724-18.601-3.6923-21.662-13.544-3.0676-9.8497 1.663-19.76 10.564-22.133 8.9016-2.3724 18.601 3.6923 21.662 13.544z"/>
    <path d="m107.07 49.879c3.1432 11.115-2.164 22.269-11.852 24.908-9.6884 2.6392-20.087-4.2356-23.222-15.353-3.1432-11.115 2.164-22.269 11.852-24.908 9.6884-2.6392 20.087 4.2356 23.222 15.353z"/>
    <path d="m168.56 49.8c-3.3936 15.668-17.388 25.429-31.253 21.798-13.865-3.6309-22.347-19.278-18.942-34.943 3.3936-15.668 17.388-25.429 31.253-21.798 13.865 3.6309 22.347 19.278 18.942 34.943z"/>
    <path d="m305.25 157.82c15.122-4.9741 31.299 0.13231 44.908 7.0966 13.502 4.8744 29.176 9.2162 37.038 22.354 7.3576 12.628 4.6917 28.51-1.5998 40.993-6.7495 15.662-16.448 31.739-32.578 39.059-15.152 5.7111-31.881 3.1754-47.078-0.97159-15.855-5.9138-25.926-21.809-28.729-37.983-3.9424-16.8-4.3228-35.295 3.1554-51.189 5.4246-9.3399 14.788-15.905 24.883-19.358z"/>
    <path d="m290.34 282.71c10.955-2.3308 21.784 2.0924 31.635 6.4354 7.8697 2.8832 16.015 7.9278 18.722 16.327 2.808 9.6217-1.131 19.661-6.2893 27.743-5.8318 9.7323-16.242 17.609-27.975 17.436-11.71 0.45752-24.487-4.6233-30.258-15.31-4.988-10.151-5.4041-21.959-3.7581-32.962 2.2386-8.9185 8.7461-17.29 17.922-19.67z"/>
    <path d="m389.66 166.65c-1.2019 7.8 3.2789 14.964 10.007 15.998 6.7278 1.0344 13.154-4.4524 14.35-12.253 1.2019-7.8-3.2789-14.963-10.007-15.998-6.7278-1.0344-13.154 4.4524-14.35 12.253z"/>
    <path d="m358.69 138.44c-0.20676 10.314 7.0939 18.518 16.304 18.32 9.2102-0.19736 16.84-8.7208 17.04-19.035 0.20673-10.314-7.0939-18.518-16.304-18.32-9.2102 0.19736-16.84 8.7208-17.04 19.035z"/>
    <path d="m317.34 122.77c0.072693 11.551 8.2729 20.788 18.313 20.628 10.04-0.15988 18.116-9.6558 18.035-21.207-0.072693-11.551-8.2729-20.788-18.313-20.628-10.04 0.15987-18.116 9.6558-18.035 21.207z"/>
    <path d="m258.26 139.8c7.618 14.106 23.775 19.589 36.083 12.245 12.308-7.3443 16.103-24.733 8.4748-38.833-7.618-14.106-23.775-19.589-36.083-12.245-12.308 7.3443-16.103 24.733-8.4748 38.833z"/>
  </g>
</svg>

